<svg width="36" height="25" viewBox="0 0 36 25" fill="none" xmlns="http://www.w3.org/2000/svg">
<path d="M35.4482 4.83304L33.0913 4.38972C32.2206 3.54136 31.0055 3.01512 29.6691 3.01831C27.2165 3.0215 25.1849 4.9351 25.035 7.24738C24.5949 7.01455 24.0623 6.68924 23.587 6.50107L23.5902 6.51064C22.6877 5.49962 21.3322 4.85856 19.8045 4.85537C18.516 4.85537 17.3264 5.15836 16.2866 5.88553C15.6009 5.98121 14.9312 6.12792 14.271 6.38306C13.0813 4.0676 10.7467 1.54802 8.51102 0.667759C4.93257 -0.735552 1.23612 0.144707 0.256994 2.63558C-0.722135 5.12965 1.15001 8.29348 4.96128 9.62025C6.77601 10.2517 8.93838 10.8673 10.836 11.0778C10.8903 11.5945 11.0083 12.1047 11.1741 12.6087C10.8775 13.0297 10.6606 13.5112 10.5586 14.0311C9.85373 14.3628 9.26051 14.9178 8.88417 15.5939C8.20484 15.7406 7.46491 15.8363 7.1077 16.034C6.17322 16.5443 6.20831 17.1949 6.90359 17.6925C7.66903 18.2379 10.6511 18.8024 14.0286 18.2761C14.5644 18.7832 15.1576 19.2648 15.8433 19.7528V21.3889C15.8433 21.3889 15.215 22.1608 15.2054 23.2419V23.2387C15.1449 24.1126 15.2054 24.2051 14.5421 24.3391L14.5548 24.54H27.1272L27.14 24.3391C26.6424 24.2402 26.5531 24.1605 26.5117 23.765C26.5117 23.7363 26.5117 23.7044 26.5117 23.6725C26.5117 23.0123 25.9503 22.502 25.2902 22.502H24.5757L24.0495 21.9471C24.1484 21.9343 24.5247 21.9216 24.6236 21.9088C27.1559 21.542 29.2896 20.3014 30.358 18.2442C31.3786 16.2796 31.1298 14.0184 29.9625 12.0059C32.4853 11.9038 34.4755 9.92643 34.4468 7.50571C34.4468 7.34625 34.434 7.18359 34.4149 7.02731L35.4482 4.83304ZM5.05376 9.10358C3.70148 8.63474 2.6171 7.9299 1.84528 7.10705C1.68262 6.93482 1.23931 6.42771 1.16914 6.33841C0.939508 6.0418 0.783233 5.68141 0.783233 5.27636C0.783233 5.22533 0.725826 5.04992 0.693932 5.01165C0.521707 4.79477 0.410076 4.51092 0.410076 4.2175C0.410076 3.8571 0.550411 3.51584 0.792801 3.28302C0.815126 3.25751 0.83745 3.12355 0.831072 3.07253C0.818314 3.00555 0.815129 2.93538 0.815129 2.86203C0.815129 2.24649 1.29353 1.72662 1.88674 1.62456C1.92502 1.61818 2.03665 1.5225 2.05897 1.48104C2.26947 1.08237 2.68728 0.808091 3.16887 0.808091C3.24541 0.808091 3.34427 0.804901 3.43995 0.81128C3.47504 0.814469 3.59942 0.773008 3.62812 0.750682C3.90879 0.511482 4.25005 0.396665 4.65509 0.396665C5.7905 0.329689 7.07262 0.56889 8.31966 1.06005C10.3385 1.8542 12.6508 4.19198 14.07 6.96671C14.5261 6.73389 15.1353 6.53296 15.6839 6.37669C14.9344 7.06877 14.2837 8.02239 13.7511 9.29494C12.9825 9.80842 12.2712 10.8577 12.0608 11.7284C11.8694 11.8655 11.6908 12.0218 11.5281 12.1909C11.3814 11.6678 11.2921 11.1384 11.2762 10.6058C9.25094 10.3857 6.72179 9.68404 5.05376 9.10358ZM7.53507 17.5203C6.88444 17.1886 6.91634 16.6177 7.68179 16.3211C8.0071 16.1967 8.5748 16.1616 9.15526 16.034C9.49971 15.2941 10.1535 14.6754 10.9222 14.3787C11.088 13.5368 11.5536 12.5863 12.4435 12.0346C12.6412 11.1033 13.3078 10.0859 14.086 9.61706C15.6424 6.05775 17.6038 5.28593 19.8619 5.28912C22.3304 5.29231 24.2983 7.20592 24.26 9.51819C24.2217 11.8305 22.0912 14.1651 19.3548 15.8458C14.7781 18.6557 9.09147 18.3112 7.53507 17.5203ZM25.1371 22.7508C25.6505 22.7508 26.0109 23.1622 26.0109 23.7012C26.0109 23.9436 26.0109 24.1828 26.0109 24.1828H25.1753C25.1753 24.068 25.1753 23.9053 25.1753 23.6725C25.1753 23.293 24.9904 22.9645 24.7065 22.754H25.1371V22.7508ZM30.4346 11.5498C30.2241 11.5817 29.937 11.5785 29.7202 11.5562C29.4331 11.5243 29.1588 11.4414 28.8941 11.3361C28.6294 11.2277 28.5146 11.3202 28.6932 11.4956C29.2003 12.0027 29.6436 12.5385 29.8924 13.1477C30.5845 14.8348 30.6227 16.5985 29.8254 18.1549C28.6709 20.4162 26.0843 21.6122 23.1023 21.6409C23.1023 21.6409 22.93 21.7206 23.1469 21.7812C23.367 21.845 23.603 21.8992 23.603 21.8992L24.1771 22.5211C24.1037 22.5084 24.0272 22.4988 23.9506 22.4988H23.5647C23.3957 22.4988 23.3478 22.7508 23.6508 22.7508H23.7752C24.2887 22.7508 24.6491 23.1622 24.6491 23.7012C24.6491 23.9181 24.6491 24.0712 24.6491 24.1828H23.8135C23.8135 24.068 23.8135 23.9053 23.8135 23.6725C23.8135 23.0123 23.2554 22.502 22.592 22.502H22.3177C22.1486 22.502 22.0976 22.754 22.4038 22.754H22.4166C22.93 22.754 23.2904 23.1654 23.2904 23.7044C23.2904 23.9213 23.2904 24.0744 23.2904 24.186H21.7181C21.7181 24.0712 21.7181 23.9085 21.7181 23.6757C21.7181 23.1016 21.2556 22.5849 20.7134 22.4765C20.6305 22.4605 20.4392 22.4956 20.4392 22.2628V21.7079C20.4392 21.7079 21.1217 21.8259 21.6065 21.8322C22.2316 21.8418 22.474 21.6218 21.9669 21.593C21.2205 21.5293 19.9799 21.2709 19.696 21.188C19.4951 21.1306 19.4122 21.2614 19.6291 21.373C19.7247 21.4208 19.8874 21.491 20.0469 21.5771C20.0469 21.5771 20.0469 21.8035 20.0469 21.9758C20.0469 22.3489 20.0054 22.7508 20.3212 22.7508C20.8346 22.7508 21.195 23.1622 21.195 23.7012C21.195 23.9181 21.195 24.0712 21.195 24.1828H20.2861C20.2861 24.068 20.2861 23.9053 20.2861 23.6725C20.2861 23.0123 19.7248 22.502 19.0646 22.502H18.6818C18.5096 22.502 18.4618 22.754 18.7679 22.754H18.8923C19.4058 22.754 19.7662 23.1654 19.7662 23.7044C19.7662 23.9213 19.7662 24.0744 19.7662 24.186H18.8572C18.8572 24.0712 18.8572 23.9085 18.8572 23.6757C18.8572 23.0155 18.2991 22.5052 17.6357 22.5052H17.3646C17.1924 22.5052 17.1446 22.7572 17.4476 22.7572H17.4635C17.977 22.7572 18.3374 23.1686 18.3374 23.7076C18.3374 23.9245 18.3374 24.0775 18.3374 24.1892H16.3504V23.3281C16.3504 22.923 16.4142 22.6647 16.5418 22.3649C16.6247 22.1703 16.4876 22.0364 16.3504 22.2373C16.1941 22.4605 16.0411 22.8369 16.0411 23.2993V24.1892H15.6647V23.2037C15.6647 22.2182 16.2898 21.5707 16.2898 21.5707V19.8899C16.2898 19.8899 16.4876 19.9442 16.6598 19.9792C16.8958 20.0271 16.9564 19.8995 16.7523 19.807C16.6757 19.7719 16.545 19.689 16.1272 19.4466C15.652 19.1691 15.0492 18.678 14.5229 18.1964C14.6856 18.1677 14.8514 18.1294 15.0141 18.0943C15.5467 18.5727 16.427 19.3159 17.3806 19.6826C17.926 19.8931 17.7442 19.6093 17.4284 19.453C16.6247 19.0511 15.9868 18.5504 15.4064 18.0018C16.781 17.667 18.1811 17.1407 19.4855 16.3402C22.5633 14.4617 24.7033 12.1622 24.748 9.56603C24.7639 8.71129 24.5311 7.91395 24.1197 7.22505C24.429 7.41641 24.748 7.66837 25.0286 7.83103C25.0286 7.83103 25.3189 8.53268 25.6506 8.98557C25.8036 9.19288 25.8866 9.06211 25.8036 8.81653C25.6665 8.41468 25.5708 7.97774 25.5644 7.53442C25.5389 5.2636 27.4015 3.42654 29.6978 3.42335C30.9193 3.42016 32.0261 3.94003 32.7979 4.76607L34.9028 5.09138L33.3145 6.3129L33.9365 6.97309C33.9652 7.15489 33.9779 7.33668 33.9811 7.52485C33.9971 9.56922 32.4215 11.2372 30.4346 11.5498Z" fill="#6D3D3A"/>
<path d="M33.0023 8.88642C32.3645 10.0314 31.4778 10.6246 30.3042 10.8064C30.1287 10.8319 29.9087 10.8415 29.7046 10.8255C29.2357 10.7905 28.8721 10.7012 28.8179 10.8255C28.7669 10.9531 29.443 11.1604 29.7014 11.1827C29.9278 11.2019 30.167 11.2083 30.3616 11.1764C31.7011 10.9659 32.8652 10.1685 33.3404 8.96296C33.6657 8.14649 33.3595 8.24217 33.0023 8.88642Z" fill="#6D3D3A"/>
<path d="M29.9625 14.8093C29.8987 14.4808 29.7073 14.0311 29.7297 15.1346C29.752 16.152 29.5734 16.978 29.1492 17.8104C28.4763 19.1276 27.2515 20.0494 25.7398 20.515C25.322 20.6426 24.8946 20.7765 24.3205 20.8818C23.351 21.0636 23.6827 21.2645 24.4067 21.1848C26.6807 20.9296 28.5687 19.8038 29.4937 17.9986C30.0103 16.9908 30.173 15.9032 29.9625 14.8093Z" fill="#6D3D3A"/>
<path d="M10.6767 9.74438C8.96083 9.60405 6.89095 9.04272 5.46531 8.5994C4.69349 8.36339 3.86426 8.00299 3.22001 7.56924C2.87556 7.33642 2.69378 7.42253 3.06693 7.70957C3.67291 8.17203 4.42559 8.52286 5.26758 8.79714C6.74743 9.28192 8.91618 9.95168 10.7469 10.108C11.1296 10.1399 11.5027 9.81773 10.6767 9.74438Z" fill="#6D3D3A"/>
<path d="M31.146 4.65432C31.146 4.96369 30.8048 5.21565 30.3838 5.21565C29.9596 5.21565 29.6215 4.96369 29.6215 4.65432C29.6215 4.34496 29.9628 4.093 30.3838 4.093C30.8016 4.093 31.146 4.34496 31.146 4.65432Z" fill="#6D3D3A"/>
<path d="M8.46656 1.44286C7.29607 0.948517 6.08412 0.715694 4.8626 0.750777C4.42566 0.763535 4.0844 0.894298 3.81011 1.14626C3.71762 1.13031 3.61237 1.12712 3.52945 1.13031H3.47524C2.98408 1.13031 2.53757 1.43011 2.3494 1.87662C1.72429 1.94359 1.22356 2.47621 1.22356 3.079C1.22356 3.18425 1.2395 3.29268 1.26821 3.39474C1.00668 3.61481 0.850403 3.95926 0.850403 4.32922C0.850403 4.63221 0.984354 4.95114 1.20761 5.18078C1.20761 5.21267 1.20123 5.31154 1.20123 5.31154C1.20123 5.67831 1.32881 6.02914 1.57439 6.32256C1.70515 6.47565 1.82316 6.54263 1.89013 6.48522C1.90608 6.47246 1.91564 6.45332 1.91564 6.42781C1.91564 6.37359 1.87099 6.29067 1.7785 6.17585C1.63179 5.99406 1.51379 5.63047 1.51379 5.27327C1.51379 5.27327 1.52654 5.17121 1.54887 5.13294C1.97305 4.98304 2.2888 5.02769 2.53438 5.15526C2.62049 5.19991 2.69066 5.19991 2.71617 5.15526C2.73212 5.12656 2.7672 5.08191 2.60773 4.97028C2.35259 4.78849 1.93797 4.63221 1.38621 4.86503C1.28096 4.69918 1.19486 4.45361 1.19486 4.26862C1.19486 3.94969 1.35751 3.70092 1.58396 3.51594C1.90927 3.43939 2.12615 3.49042 2.37173 3.60205C2.47379 3.6467 2.55352 3.6467 2.5886 3.60205C2.60774 3.57335 2.6173 3.52551 2.45784 3.41069C2.19312 3.21933 1.88694 3.15554 1.56801 3.20976C1.56482 3.18744 1.56482 3.16511 1.56482 3.16511C1.54888 2.57827 2.00495 2.18598 2.54714 2.14133C2.7672 2.11263 2.98408 2.14452 3.20414 2.25615C3.29663 2.30399 3.36999 2.30399 3.3987 2.25615C3.40507 2.24977 3.40826 2.23701 3.40826 2.22106C3.40826 2.18598 3.39231 2.14133 3.28068 2.0616C3.11484 1.94359 2.93304 1.8798 2.74168 1.85429C2.96175 1.51622 3.43377 1.37908 3.86752 1.47157C4.00147 1.50027 4.20879 1.54492 4.46074 1.72034C4.54367 1.77775 4.60745 1.80007 4.64572 1.7618C4.65529 1.75223 4.66805 1.73628 4.66805 1.71077C4.66805 1.67569 4.65529 1.63104 4.57875 1.54811C4.46712 1.42054 4.33316 1.33124 4.18645 1.26426C4.39057 1.14944 4.62659 1.08247 4.87535 1.0729C5.99481 1.03463 7.30883 1.25469 8.30709 1.64698C8.46656 1.71077 8.59095 1.70439 8.61965 1.63423C8.62284 1.62466 8.62603 1.61509 8.62603 1.60552C8.62922 1.55449 8.59732 1.50027 8.46656 1.44286Z" fill="#6D3D3A"/>
<path d="M16.3249 6.94108C15.6775 7.62998 15.0332 8.54533 14.4623 9.84658C13.6682 10.325 12.9856 11.3647 12.7847 12.3183C11.8726 12.8796 11.3974 13.8524 11.2283 14.7135C10.4437 15.0165 9.80268 15.6225 9.44866 16.3815C8.87777 16.4677 8.2399 16.5506 7.91778 16.6973C7.74236 16.777 7.57971 17.0704 8.33558 17.3798C8.66727 17.5138 9.20627 17.6413 9.96215 17.6987C12.2043 17.871 13.2886 17.5967 13.7288 17.4946C14.1721 17.3926 14.137 17.2235 13.4577 17.3256C12.7783 17.4277 11.1103 17.552 9.88561 17.3926C9.09784 17.2905 8.75339 17.2235 8.42808 17.0864C8.27818 17.0226 8.22077 16.9429 8.44084 16.8695C8.6609 16.7962 8.95431 16.7675 9.80906 16.6463C10.667 16.5251 11.1454 16.4134 10.9764 16.3082C10.8807 16.2476 10.3608 16.2412 10.0004 16.2954C10.3736 15.6926 10.9477 15.2015 11.6047 14.94C12.4052 14.6625 12.8868 14.4966 12.705 14.4233C12.5328 14.3531 12.048 14.4616 11.6908 14.5796C11.9045 13.8173 12.3446 12.9977 13.1419 12.5352C13.9807 12.1142 14.3698 11.9579 14.1785 11.9037C14.0094 11.8559 13.5821 11.993 13.2504 12.1397C13.5246 11.3073 14.0828 10.4207 14.8068 10.0539C15.7062 9.58186 16.0155 9.43834 15.8242 9.3905C15.6711 9.35223 15.3139 9.47024 15.0013 9.60738C15.3777 8.77177 15.805 7.95849 16.2005 7.42906C16.6598 6.8167 16.6821 6.56155 16.3249 6.94108Z" fill="#6D3D3A"/>
</svg>
